<svg id="Layer_1" data-name="Layer 1" xmlns="http://www.w3.org/2000/svg" viewBox="0 0 38.92 38.92">
  <g>
    <circle cx="19.46" cy="19.46" r="19.46" fill="#c09fe0"/>
    <path d="M24.56,26.54a3.39,3.39,0,0,0-.43-1.75,4.27,4.27,0,0,0-1.65-1.41A22.57,22.57,0,0,0,18.87,22,34.82,34.82,0,0,1,15,20.46a15.55,15.55,0,0,1-3.22-1.94,8.48,8.48,0,0,1-2.2-2.6,7.06,7.06,0,0,1-.81-3.45,7.08,7.08,0,0,1,1.44-4.42,9.41,9.41,0,0,1,4-2.93,14.88,14.88,0,0,1,5.77-1A13.56,13.56,0,0,1,25.8,5.24a9.21,9.21,0,0,1,3.86,3.27A8.61,8.61,0,0,1,31,13.33H24.59a4.41,4.41,0,0,0-.52-2.15,3.54,3.54,0,0,0-1.55-1.46,5.9,5.9,0,0,0-2.65-.52,6.43,6.43,0,0,0-2.57.45,3.49,3.49,0,0,0-1.53,1.19,2.87,2.87,0,0,0-.51,1.67,2.38,2.38,0,0,0,.68,1.68,6.43,6.43,0,0,0,2,1.33,24.58,24.58,0,0,0,3.15,1.19A24,24,0,0,1,26.56,19a9.53,9.53,0,0,1,3.34,3.16A8,8,0,0,1,31,26.5,7.47,7.47,0,0,1,29.68,31a8.37,8.37,0,0,1-3.8,2.86,15.3,15.3,0,0,1-5.76,1,16.89,16.89,0,0,1-4.43-.58,12.84,12.84,0,0,1-3.93-1.81A9.18,9.18,0,0,1,9,29.36a9,9,0,0,1-1-4.45h6.48a5.58,5.58,0,0,0,.4,2.26,3.72,3.72,0,0,0,1.15,1.49,4.86,4.86,0,0,0,1.81.83,10.21,10.21,0,0,0,2.38.26,6.43,6.43,0,0,0,2.52-.42,3.16,3.16,0,0,0,1.45-1.15A2.93,2.93,0,0,0,24.56,26.54Z"/>
  </g>
</svg>
