<svg id="Layer_1" data-name="Layer 1" xmlns="http://www.w3.org/2000/svg" viewBox="0 0 38.9 38.9">
  <g>
    <circle cx="19.5" cy="19.5" r="19.5" fill="#c09fe0"/>
    <path d="M23,24.2a1.88,1.88,0,0,0-.26-1.13,2.33,2.33,0,0,0-1.13-.93,15.75,15.75,0,0,0-2.39-.93,16.73,16.73,0,0,1-2.52-1A12,12,0,0,1,14.52,19a5.24,5.24,0,0,1-1.46-1.72,5.07,5.07,0,0,1-.53-2.33A4.8,4.8,0,0,1,13.46,12a6.3,6.3,0,0,1,2.66-1.92A9.84,9.84,0,0,1,20,9.4a8.63,8.63,0,0,1,3.84.79,6.41,6.41,0,0,1,2.59,2.19,5.25,5.25,0,0,1,.93,3.19H23.08a3.59,3.59,0,0,0-.33-1.46,2.57,2.57,0,0,0-1.06-1,4.67,4.67,0,0,0-3.45,0A2,2,0,0,0,16.91,15a1.58,1.58,0,0,0,.47,1.13A4.31,4.31,0,0,0,18.7,17c.6.26,1.27.53,2.06.79a17.28,17.28,0,0,1,3.65,1.53,5.55,5.55,0,0,1,2.19,2.13,5.61,5.61,0,0,1,.73,2.85,4.83,4.83,0,0,1-.86,3A6.27,6.27,0,0,1,24,29.24a9.65,9.65,0,0,1-3.85.66,10.88,10.88,0,0,1-2.92-.39,8.54,8.54,0,0,1-2.59-1.2,5.52,5.52,0,0,1-1.86-2.06,5.78,5.78,0,0,1-.66-2.92h4.31a3.67,3.67,0,0,0,.27,1.53,2.5,2.5,0,0,0,.79,1,2.58,2.58,0,0,0,1.2.53,11.09,11.09,0,0,0,1.59.2,4,4,0,0,0,1.66-.27,2.44,2.44,0,0,0,1-.8A7.6,7.6,0,0,1,23,24.2Z"/>
  </g>
</svg>
