<svg xmlns="http://www.w3.org/2000/svg" width="94.217" height="91.891" viewBox="0 0 94.217 91.891">
  <path id="Path_17" data-name="Path 17" d="M183.424,107.44a47.114,47.114,0,0,0-14.888,91.81c2.357.431,3.216-1.021,3.216-2.27,0-1.119-.04-4.081-.064-8.014-13.1,2.849-15.868-6.313-15.868-6.313-2.143-5.443-5.232-6.891-5.232-6.891-4.277-2.924.324-2.863.324-2.863,4.728.333,7.215,4.853,7.215,4.853,4.2,7.2,11.027,5.122,13.711,3.916a10.07,10.07,0,0,1,2.99-6.3c-10.46-1.189-21.458-5.229-21.458-23.283a18.212,18.212,0,0,1,4.85-12.641c-.486-1.191-2.1-5.981.463-12.467,0,0,3.953-1.267,12.953,4.83a44.674,44.674,0,0,1,23.587,0c8.994-6.1,12.941-4.83,12.941-4.83,2.571,6.487.954,11.276.471,12.467a18.18,18.18,0,0,1,4.841,12.641c0,18.1-11.015,22.08-21.51,23.245,1.692,1.455,3.2,4.332,3.2,8.725,0,6.3-.058,11.38-.058,12.924,0,1.258.85,2.724,3.239,2.264a47.116,47.116,0,0,0-14.922-91.8Z" transform="translate(-136.32 -107.44)" fill="#c09fe0" fill-rule="evenodd"/>
</svg>
