<svg xmlns="http://www.w3.org/2000/svg" width="92" height="92" viewBox="0 0 92 92">
  <g id="Group_21" data-name="Group 21" transform="translate(-501.891 -5364)">
    <g id="Rectangle_6" data-name="Rectangle 6" transform="translate(501.891 5364)" fill="none" stroke="#c09fe0" stroke-linecap="round" stroke-linejoin="round" stroke-width="12">
      <rect width="92" height="92" rx="22" stroke="none"/>
      <rect x="6" y="6" width="80" height="80" rx="16" fill="none"/>
    </g>
    <g id="Path_5" data-name="Path 5" transform="translate(524.039 5385.292)" fill="none">
      <path d="M24.28,0A24.28,24.28,0,1,1,0,24.28,24.28,24.28,0,0,1,24.28,0Z" stroke="none"/>
      <path d="M 24.28017234802246 11.99999237060547 C 17.50886344909668 11.99999237060547 11.99999237060547 17.50886344909668 11.99999237060547 24.28017234802246 C 11.99999237060547 31.05148124694824 17.50886344909668 36.56033706665039 24.28017234802246 36.56033706665039 C 31.05148124694824 36.56033706665039 36.56033706665039 31.05148124694824 36.56033706665039 24.28017234802246 C 36.56033706665039 17.50886344909668 31.05148124694824 11.99999237060547 24.28017234802246 11.99999237060547 M 24.28017234802246 -7.62939453125e-06 C 37.68973541259766 -7.62939453125e-06 48.56033706665039 10.87060928344727 48.56033706665039 24.28017234802246 C 48.56033706665039 37.68973541259766 37.68973541259766 48.56033706665039 24.28017234802246 48.56033706665039 C 10.87060928344727 48.56033706665039 -7.62939453125e-06 37.68973541259766 -7.62939453125e-06 24.28017234802246 C -7.62939453125e-06 10.87060928344727 10.87060928344727 -7.62939453125e-06 24.28017234802246 -7.62939453125e-06 Z" stroke="none" fill="#c09fe0"/>
    </g>
    <circle id="Ellipse_2" data-name="Ellipse 2" cx="5.5" cy="5.5" r="5.5" transform="translate(567.891 5380)" fill="#c09fe0"/>
  </g>
</svg>
