<svg xmlns="http://www.w3.org/2000/svg" width="49.68" height="50" viewBox="0 0 95.306 95.913">
  <g id="Group_20" data-name="Group 20" transform="translate(0.001 0.001)">
    <g id="linkedin">
      <path id="Exclusion_1" data-name="Exclusion 1" d="M-14643.487-6028.088h-81.22a6.966,6.966,0,0,1-7.043-6.87v-82.173a6.966,6.966,0,0,1,7.043-6.87h81.22a6.966,6.966,0,0,1,7.043,6.87v82.173A6.966,6.966,0,0,1-14643.487-6028.088Zm-29.148-48.585a6.34,6.34,0,0,1,5.6,2.713,12.564,12.564,0,0,1,1.693,7.081v23.167h14.394v-24.834a27.575,27.575,0,0,0-1.257-8.657,16.577,16.577,0,0,0-3.477-6.077c-2.869-3.112-6.962-4.757-11.838-4.757a14.865,14.865,0,0,0-8.633,2.467,16.143,16.143,0,0,0-4.341,4.678v-6.128h-14.393c.183,4.015,0,42.917,0,43.309h14.394V-6067.9a9.519,9.519,0,0,1,.477-3.512,8.966,8.966,0,0,1,2.591-3.6A7.4,7.4,0,0,1-14672.636-6076.673Zm-44.617-10.348v43.309h14.4l0-43.309Zm7.294-20.878a8.424,8.424,0,0,0-5.92,2.147,7.231,7.231,0,0,0-2.225,5.336,7.323,7.323,0,0,0,2.166,5.3,8.081,8.081,0,0,0,5.79,2.183h.093a8.39,8.39,0,0,0,5.955-2.183,7.252,7.252,0,0,0,2.189-5.3,7.571,7.571,0,0,0-2.214-5.336A8.181,8.181,0,0,0-14709.959-6107.9Z" transform="translate(14731.749 6124)" fill-rule="evenodd"/>
    </g>
  </g>
</svg>

