<svg xmlns="http://www.w3.org/2000/svg" width="95.307" height="95.91" viewBox="0 0 95.307 95.91">
  <g id="Group_20" data-name="Group 20" transform="translate(-3172.097 -5232)">
    <g id="linkedin" transform="translate(3172.097 5232)">
      <path id="Path_6" data-name="Path 6" d="M213.882,8.654a6.961,6.961,0,0,1,7.044-6.871h81.218a6.96,6.96,0,0,1,7.044,6.871V90.824a6.958,6.958,0,0,1-7.044,6.869H220.926a6.959,6.959,0,0,1-7.044-6.868V8.652Z" transform="translate(-213.882 -1.783)" fill="#c09fe0"/>
      <path id="Path_9" data-name="Path 9" d="M239.975,78.768V35.46h-14.4V78.768h14.4Zm-7.2-49.221c5.019,0,8.143-3.326,8.143-7.482-.094-4.25-3.125-7.483-8.048-7.483s-8.145,3.233-8.145,7.483c0,4.156,3.123,7.482,7.955,7.482h.093Zm15.162,49.221h14.394V54.586a9.865,9.865,0,0,1,.474-3.512,7.878,7.878,0,0,1,7.386-5.265c5.208,0,7.292,3.971,7.292,9.794V78.768h14.394V53.937c0-13.3-7.1-19.492-16.571-19.492-7.765,0-11.175,4.34-13.069,7.3h.1V35.461H247.944c.187,4.063,0,43.309,0,43.309Z" transform="translate(-211.084 1.518)" fill="#00000"/>
    </g>
  </g>
</svg>
