<svg id="Layer_1" data-name="Layer 1" xmlns="http://www.w3.org/2000/svg" viewBox="0 0 39.54 40.38">
  <g id="Group_16" data-name="Group 16">
    <path id="Path_10" data-name="Path 10" d="M29.15,12.45c1.61,2.49,4.19,4.44,5,6.91s-.17,5.46-1.89,7.85a23.13,23.13,0,0,1-7.07,6c-2.85,1.73-6.09,3.36-8.63,2.51s-4.43-4.14-6.81-6.64-5.32-4.21-5.91-6.5S5,17.33,6.56,14.92a24.64,24.64,0,0,1,5-5.75A20.93,20.93,0,0,1,18.07,6c2.52-.81,5.36-1.43,7.11-.23S27.57,10,29.15,12.45Z" fill="#404161"/>
  </g>
  <path d="M25.69,24.21a5.76,5.76,0,0,1-6.08,5.93,5.86,5.86,0,0,1-4.46-1.74,5.72,5.72,0,0,1-1.62-4l2.29-1.09h.12v1a3.62,3.62,0,0,0,.87,2.47A3.51,3.51,0,0,0,19.61,28a3.54,3.54,0,0,0,2.81-1.24,3.64,3.64,0,0,0,.86-2.49,3.41,3.41,0,0,0-.7-2.26,3.69,3.69,0,0,0-3-1.13,5.48,5.48,0,0,1-3.79-1.44,4,4,0,0,1-1.21-3.15,4.4,4.4,0,0,1,1.5-3.64,5.35,5.35,0,0,1,3.5-1.16,5.4,5.4,0,0,1,3.51,1.16A4.06,4.06,0,0,1,24.62,16L22.33,17h-.12v-1a2.57,2.57,0,0,0-.79-2,2.66,2.66,0,0,0-1.81-.66,2.5,2.5,0,0,0-1.88.73,2.74,2.74,0,0,0-.71,2,2.61,2.61,0,0,0,.54,1.79,2.62,2.62,0,0,0,2.05.81,6.47,6.47,0,0,1,4.46,1.38A5.24,5.24,0,0,1,25.69,24.21Z" fill="#c09fe0"/>
</svg>
