<svg xmlns="http://www.w3.org/2000/svg" width="181.107" height="85.246" viewBox="0 0 181.107 85.246">
  <g id="Group_19" data-name="Group 19" transform="translate(-908 -5368)">
    <g id="Rectangle_7" data-name="Rectangle 7" transform="translate(951.491 5368)" fill="none" stroke="#c09fe1" stroke-linejoin="round" stroke-width="12">
      <rect width="93.126" height="85.246" rx="22" stroke="none"/>
      <rect x="6" y="6" width="81.126" height="73.246" rx="16" fill="none"/>
    </g>
    <g id="Polygon_1" data-name="Polygon 1" transform="translate(1089.107 5433.188) rotate(180)" fill="none">
      <path d="M77.7,9.253a22,22,0,0,1,25.707,0l22.337,16.08c17.336,12.48,8.508,39.855-12.853,39.855H68.216c-21.361,0-30.189-27.375-12.853-39.855Z" stroke="none"/>
      <path d="M 90.55330657958984 17.10765075683594 C 88.44345855712891 17.10765075683594 86.42317962646484 17.75920104980469 84.71088409423828 18.99187469482422 L 62.37360382080078 35.07212829589844 C 56.88975524902344 39.01985168457031 58.17438507080078 44.63142395019531 58.69873046875 46.25727844238281 C 59.22308349609375 47.88312530517578 61.45903015136719 53.18790054321289 68.21603393554688 53.18790054321289 L 112.8905563354492 53.18790054321289 C 119.6475524902344 53.18790054321289 121.8835296630859 47.88312530517578 122.4078521728516 46.25727844238281 C 122.9322052001953 44.63142395019531 124.2168273925781 39.01985168457031 118.7329864501953 35.07212829589844 L 96.39570617675781 18.99185180664062 C 94.68343353271484 17.75920104980469 92.66315460205078 17.10765075683594 90.55330657958984 17.10765075683594 M 90.55330657958984 5.107658386230469 C 95.06056976318359 5.107658386230469 99.56783294677734 6.489414215087891 103.4066543579102 9.252925872802734 L 125.7439117431641 25.33317565917969 C 143.0800018310547 37.81315231323242 134.2514801025391 65.18790435791016 112.8905563354492 65.18790435791016 L 68.21603393554688 65.18790435791016 C 46.8551025390625 65.18790435791016 38.026611328125 37.81315231323242 55.36267852783203 25.33317565917969 L 77.69995880126953 9.252925872802734 C 81.53878021240234 6.489414215087891 86.04604339599609 5.107658386230469 90.55330657958984 5.107658386230469 Z" stroke="none" fill="#c09fe1"/>
    </g>
  </g>
</svg>
