<svg xmlns="http://www.w3.org/2000/svg" width="375" height="490.589" viewBox="0 0 375 490.589">
  <path id="Union_3" data-name="Union 3" d="M-5261.526,490.589V33.105l7.813-5.525c7.812-5.442,23.437-16.614,39.062-18.745,15.625-2.214,31.25,4.406,46.875,6.621,15.625,2.131,31.249.062,46.874,5.5,15.625,5.524,31.25,18.767,46.875,17.669,15.625-1.179,31.25-16.49,46.875-17.669,15.625-1.1,31.25,12.146,46.875,13.242,15.625,1.179,31.249-9.993,46.874-17.649a225.528,225.528,0,0,1,39.063-14.338L-4886.526,0V490.589Z" transform="translate(5261.526)" fill="#495778"/>
</svg>

